<?xml version="1.0" standalone="no"?>
<!DOCTYPE svg PUBLIC "-//W3C//DTD SVG 20010904//EN"
 "http://www.w3.org/TR/2001/REC-SVG-20010904/DTD/svg10.dtd">
<svg version="1.0" xmlns="http://www.w3.org/2000/svg"
 width="512.000000pt" height="512.000000pt" viewBox="0 0 512.000000 512.000000"
 preserveAspectRatio="xMidYMid meet">
<metadata>
Created by potrace 1.11, written by Peter Selinger 2001-2013
</metadata>
<g transform="translate(0.000000,512.000000) scale(0.100000,-0.100000)"
fill="#000000" stroke="none">
<path d="M2467 5110 c-94 -24 -204 -103 -243 -175 l-19 -35 -75 0 c-147 -1
-301 -53 -397 -134 l-41 -36 -406 0 c-256 0 -424 -4 -458 -11 -182 -38 -339
-195 -377 -377 -16 -75 -16 -3879 0 -3954 38 -182 195 -339 377 -377 75 -16
3389 -16 3464 0 183 38 339 194 377 377 16 75 16 3879 0 3954 -38 183 -194
339 -377 377 -34 7 -201 11 -458 11 l-406 0 -41 36 c-96 81 -250 133 -397 134
l-75 0 -19 35 c-29 53 -99 113 -172 147 -71 33 -186 46 -257 28z m154 -201
c58 -20 95 -55 125 -120 38 -81 55 -89 196 -89 126 0 190 -14 267 -56 91 -49
177 -161 196 -254 3 -19 9 -43 11 -52 5 -17 -40 -18 -856 -18 l-861 0 7 38
c10 62 60 159 108 210 89 95 190 132 364 132 141 0 158 8 196 89 49 107 146
153 247 120z m-1093 -441 c-25 -81 -36 -245 -18 -288 26 -63 -27 -60 1050 -60
1077 0 1024 -3 1050 60 23 56 4 238 -35 333 -7 17 9 18 341 15 331 -3 351 -4
395 -24 58 -27 116 -85 143 -143 l21 -46 0 -1950 0 -1950 -21 -46 c-27 -58
-85 -116 -143 -143 l-46 -21 -1705 0 -1705 0 -45 21 c-59 28 -117 86 -144 143
l-21 46 -3 1920 c-2 1375 0 1935 8 1972 21 97 95 178 192 208 32 10 126 14
374 14 l332 1 -20 -62z"/>
<path d="M2511 4676 c-87 -48 -50 -186 49 -186 51 0 100 49 100 99 0 75 -83
124 -149 87z"/>
<path d="M1581 3425 l-227 -225 -69 70 c-82 83 -124 101 -173 76 -18 -9 -39
-30 -47 -47 -29 -55 -14 -83 120 -216 l122 -123 48 0 49 0 273 273 c272 272
273 273 273 316 0 60 -41 101 -101 101 -42 0 -45 -3 -268 -225z"/>
<path d="M2511 3586 c-67 -37 -65 -143 4 -174 19 -9 213 -12 765 -12 552 0
746 3 765 12 29 13 55 55 55 88 0 33 -26 75 -55 88 -40 18 -1501 16 -1534 -2z"/>
<path d="M2511 3106 c-47 -26 -63 -84 -37 -135 26 -49 42 -51 392 -51 l326 0
34 34 c25 25 34 43 34 66 0 23 -9 42 -34 66 l-34 34 -329 0 c-253 -1 -333 -4
-352 -14z"/>
<path d="M3531 3106 c-90 -50 -50 -186 55 -186 38 0 94 59 94 100 0 23 -9 42
-34 66 -37 37 -73 43 -115 20z"/>
<path d="M1151 2506 c-48 -26 -50 -43 -51 -324 0 -286 3 -307 55 -330 40 -19
537 -17 574 2 48 25 51 46 51 326 0 280 -3 301 -51 326 -39 20 -542 20 -578 0z
m429 -326 l0 -140 -140 0 -140 0 0 140 0 140 140 0 140 0 0 -140z"/>
<path d="M2511 2506 c-67 -37 -65 -143 4 -174 37 -17 1493 -17 1530 0 29 13
55 55 55 88 0 33 -26 75 -55 88 -40 18 -1501 16 -1534 -2z"/>
<path d="M2511 2026 c-47 -26 -63 -84 -37 -135 26 -49 42 -51 392 -51 l326 0
34 34 c25 25 34 43 34 66 0 23 -9 42 -34 66 l-34 34 -329 0 c-253 -1 -333 -4
-352 -14z"/>
<path d="M3531 2026 c-90 -50 -50 -186 55 -186 38 0 94 59 94 100 0 23 -9 42
-34 66 -37 37 -73 43 -115 20z"/>
<path d="M1151 1426 c-48 -26 -50 -43 -51 -324 0 -286 3 -307 55 -330 40 -19
537 -17 574 2 48 25 51 46 51 326 0 280 -3 301 -51 326 -39 20 -542 20 -578 0z
m429 -326 l0 -140 -140 0 -140 0 0 140 0 140 140 0 140 0 0 -140z"/>
<path d="M2511 1426 c-67 -37 -65 -143 4 -174 37 -17 1493 -17 1530 0 29 13
55 55 55 88 0 33 -26 75 -55 88 -40 18 -1501 16 -1534 -2z"/>
<path d="M2511 946 c-47 -26 -63 -84 -37 -135 26 -49 42 -51 392 -51 l326 0
34 34 c25 25 34 43 34 66 0 23 -9 42 -34 66 l-34 34 -329 0 c-253 -1 -333 -4
-352 -14z"/>
<path d="M3531 946 c-90 -50 -50 -186 55 -186 38 0 94 59 94 100 0 23 -9 42
-34 66 -37 37 -73 43 -115 20z"/>
</g>
</svg>
